<svg xmlns="http://www.w3.org/2000/svg" viewBox="0 0 220 36" fill="none">
  <defs>
    <linearGradient id="g-dark" x1="6" y1="8" x2="26" y2="28" gradientUnits="userSpaceOnUse">
      <stop offset="0" stop-color="#7CF9FF"/>
      <stop offset="0.55" stop-color="#22D3EE"/>
      <stop offset="1" stop-color="#1D4ED8"/>
    </linearGradient>
  </defs>

  <g transform="translate(2,2)" fill="none" stroke="url(#g-dark)" stroke-width="1.8" stroke-linecap="round" stroke-linejoin="round">
    <path d="M12.4 6.8c-3.7 0-6.8 2.9-6.8 6.5c0 .8.2 1.5.4 2.2c-1.5 1.2-2.4 3-2.4 5.1
             c0 3.4 2.7 6.2 6.1 6.2h3.4c1 1.2 2.6 2.1 4.4 2.1c1.8 0 3.4-.8 4.4-2.1h2.6
             c3.4 0 6.1-2.8 6.1-6.2c0-2.1-.9-3.9-2.4-5.1c.3-.7.4-1.4.4-2.2c0-3.6-3-6.5-6.8-6.5
             c-1.6 0-3 .5-4.2 1.3c-1.2-.8-2.6-1.3-4.2-1.3z"/>
    <path d="M17.5 8v18.9"/>
    <path d="M9.2 11.1c1.8-.9 4.2-.6 5.6.9"/>
    <path d="M8 15.1c1.5-.7 3.4-.5 4.5.6"/>
    <path d="M25.8 11.1c-1.8-.9-4.2-.6-5.6.9"/>
    <path d="M27 15.1c-1.5-.7-3.4-.5-4.5.6"/>
    <path d="M5.2 13.2H1.8"/>
    <circle cx="1.2" cy="13.2" r="1.2" fill="#7CF9FF" stroke="url(#g-dark)"/>
    <path d="M29.8 13.2H33.2"/>
    <circle cx="33.8" cy="13.2" r="1.2" fill="#7CF9FF" stroke="url(#g-dark)"/>
  </g>

  <text x="42" y="25" font-family="Inter, system-ui, -apple-system, sans-serif" font-size="20" font-weight="700" letter-spacing="-0.5">
    <tspan fill="#f0f0f5">Mudabbir</tspan><tspan fill="#4da6ff"> AI</tspan>
  </text>
</svg>
